<mxfile host="app.diagrams.net" modified="2024-02-02T10:43:03.537Z" agent="Mozilla/5.0 (Windows NT 10.0; Win64; x64) AppleWebKit/537.36 (KHTML, like Gecko) Chrome/120.0.0.0 Safari/537.36 Edg/120.0.0.0" etag="uQUYH1Bqf2oq3yPM0PGV" version="23.1.0" type="github">
  <diagram name="Page-1" id="e-jTvKQuZXASQU15p-Po">
    <mxGraphModel dx="786" dy="433" grid="1" gridSize="10" guides="1" tooltips="1" connect="1" arrows="1" fold="1" page="1" pageScale="1" pageWidth="850" pageHeight="1100" math="0" shadow="0">
      <root>
        <mxCell id="0" />
        <mxCell id="1" parent="0" />
        <mxCell id="5u_zOZb2cqrDoWyXCR4I-6" value="" style="rounded=1;whiteSpace=wrap;html=1;" vertex="1" parent="1">
          <mxGeometry x="290" y="100" width="460" height="290" as="geometry" />
        </mxCell>
        <mxCell id="5u_zOZb2cqrDoWyXCR4I-1" value="" style="image;aspect=fixed;html=1;points=[];align=center;fontSize=12;image=img/lib/azure2/networking/Firewalls.svg;shadow=1;" vertex="1" parent="1">
          <mxGeometry x="260" y="150" width="51" height="43.1" as="geometry" />
        </mxCell>
        <mxCell id="5u_zOZb2cqrDoWyXCR4I-2" value="" style="verticalLabelPosition=bottom;html=1;verticalAlign=top;align=center;strokeColor=none;fillColor=#00BEF2;shape=mxgraph.azure.virtual_network;pointerEvents=1;" vertex="1" parent="1">
          <mxGeometry x="670" y="200" width="30" height="20" as="geometry" />
        </mxCell>
        <mxCell id="5u_zOZb2cqrDoWyXCR4I-7" value="" style="whiteSpace=wrap;html=1;aspect=fixed;fontStyle=1" vertex="1" parent="1">
          <mxGeometry x="590" y="220" width="110" height="110" as="geometry" />
        </mxCell>
        <mxCell id="5u_zOZb2cqrDoWyXCR4I-8" value="" style="image;aspect=fixed;html=1;points=[];align=center;fontSize=12;image=img/lib/azure2/networking/Network_Security_Groups.svg;" vertex="1" parent="1">
          <mxGeometry x="510" y="270" width="20" height="24.28" as="geometry" />
        </mxCell>
        <mxCell id="5u_zOZb2cqrDoWyXCR4I-10" value="" style="endArrow=classic;startArrow=classic;html=1;rounded=0;" edge="1" parent="1" target="5u_zOZb2cqrDoWyXCR4I-8">
          <mxGeometry width="50" height="50" relative="1" as="geometry">
            <mxPoint x="590" y="281" as="sourcePoint" />
            <mxPoint x="560" y="283.74428571428564" as="targetPoint" />
          </mxGeometry>
        </mxCell>
        <mxCell id="5u_zOZb2cqrDoWyXCR4I-14" value="" style="verticalLabelPosition=bottom;html=1;verticalAlign=top;align=center;strokeColor=none;fillColor=#00BEF2;shape=mxgraph.azure.virtual_machine;" vertex="1" parent="1">
          <mxGeometry x="660" y="290" width="30" height="20" as="geometry" />
        </mxCell>
      </root>
    </mxGraphModel>
  </diagram>
</mxfile>
